<svg xmlns="http://www.w3.org/2000/svg" viewBox="0 0 720 1480" font-family="-apple-system, Segoe UI, Roboto, sans-serif">
  <defs>
    <linearGradient id="bg" x1="0" y1="0" x2="1" y2="1">
      <stop offset="0%" stop-color="#14B8A6"/>
      <stop offset="100%" stop-color="#2563EB"/>
    </linearGradient>
    <linearGradient id="t1" x1="0" y1="0" x2="1" y2="1">
      <stop offset="0%" stop-color="#F97316"/>
      <stop offset="100%" stop-color="#EC4899"/>
    </linearGradient>
    <linearGradient id="t2" x1="0" y1="0" x2="0" y2="1">
      <stop offset="0%" stop-color="#0F172A"/>
      <stop offset="100%" stop-color="#1E293B"/>
    </linearGradient>
    <linearGradient id="t3" x1="0" y1="0" x2="1" y2="1">
      <stop offset="0%" stop-color="#14B8A6"/>
      <stop offset="100%" stop-color="#2563EB"/>
    </linearGradient>
    <linearGradient id="t4" x1="0" y1="0" x2="1" y2="1">
      <stop offset="0%" stop-color="#8B5CF6"/>
      <stop offset="100%" stop-color="#6366F1"/>
    </linearGradient>
  </defs>

  <rect width="720" height="1480" fill="#EDF1F7"/>

  <!-- Top app bar -->
  <rect width="720" height="120" fill="url(#bg)"/>
  <path d="M50 60 L80 40 L80 80 Z" fill="#ffffff"/>
  <text x="360" y="72" font-size="32" font-weight="600" fill="#ffffff" text-anchor="middle">Templates</text>
  <circle cx="660" cy="60" r="22" fill="#ffffff" opacity="0.25"/>
  <circle cx="660" cy="60" r="10" fill="none" stroke="#ffffff" stroke-width="3"/>
  <line x1="667" y1="67" x2="676" y2="76" stroke="#ffffff" stroke-width="3" stroke-linecap="round"/>

  <!-- Search bar -->
  <rect x="32" y="156" width="656" height="72" rx="36" fill="#ffffff"/>
  <circle cx="80" cy="192" r="14" fill="none" stroke="#94A3B8" stroke-width="3"/>
  <line x1="90" y1="202" x2="102" y2="214" stroke="#94A3B8" stroke-width="3" stroke-linecap="round"/>
  <text x="130" y="200" font-size="22" fill="#94A3B8">Search templates...</text>

  <!-- Category chips -->
  <rect x="32" y="256" width="140" height="56" rx="28" fill="#2563EB"/>
  <text x="102" y="290" font-size="22" font-weight="600" fill="#ffffff" text-anchor="middle">All</text>
  <rect x="188" y="256" width="160" height="56" rx="28" fill="#ffffff"/>
  <text x="268" y="290" font-size="22" fill="#475569" text-anchor="middle">SaaS</text>
  <rect x="364" y="256" width="180" height="56" rx="28" fill="#ffffff"/>
  <text x="454" y="290" font-size="22" fill="#475569" text-anchor="middle">E-commerce</text>
  <rect x="560" y="256" width="160" height="56" rx="28" fill="#ffffff"/>
  <text x="640" y="290" font-size="22" fill="#475569" text-anchor="middle">Event</text>

  <!-- Template cards -->
  <!-- Card 1 -->
  <rect x="32" y="348" width="320" height="420" rx="20" fill="#ffffff"/>
  <rect x="32" y="348" width="320" height="280" rx="20" fill="url(#t1)"/>
  <rect x="56" y="392" width="180" height="16" rx="4" fill="#ffffff" opacity="0.95"/>
  <rect x="56" y="416" width="220" height="10" rx="3" fill="#ffffff" opacity="0.7"/>
  <rect x="56" y="432" width="200" height="10" rx="3" fill="#ffffff" opacity="0.7"/>
  <rect x="56" y="500" width="100" height="32" rx="16" fill="#ffffff"/>
  <text x="106" y="522" font-size="14" font-weight="600" fill="#F97316" text-anchor="middle">Get started</text>
  <text x="56" y="676" font-size="22" font-weight="600" fill="#0F172A">Black Friday</text>
  <text x="56" y="708" font-size="18" fill="#64748B">Sales · 6 blocks</text>
  <rect x="56" y="724" width="80" height="28" rx="14" fill="#FFF7ED"/>
  <text x="96" y="744" font-size="14" font-weight="600" fill="#F97316" text-anchor="middle">PRO</text>

  <!-- Card 2 -->
  <rect x="368" y="348" width="320" height="420" rx="20" fill="#ffffff"/>
  <rect x="368" y="348" width="320" height="280" rx="20" fill="url(#t2)"/>
  <rect x="392" y="392" width="220" height="16" rx="4" fill="#ffffff" opacity="0.95"/>
  <rect x="392" y="416" width="240" height="10" rx="3" fill="#ffffff" opacity="0.7"/>
  <rect x="392" y="432" width="200" height="10" rx="3" fill="#ffffff" opacity="0.7"/>
  <rect x="392" y="500" width="100" height="32" rx="16" fill="#14B8A6"/>
  <text x="442" y="522" font-size="14" font-weight="600" fill="#ffffff" text-anchor="middle">Try free</text>
  <text x="392" y="676" font-size="22" font-weight="600" fill="#0F172A">SaaS Launch</text>
  <text x="392" y="708" font-size="18" fill="#64748B">Product · 8 blocks</text>

  <!-- Card 3 -->
  <rect x="32" y="788" width="320" height="420" rx="20" fill="#ffffff"/>
  <rect x="32" y="788" width="320" height="280" rx="20" fill="url(#t3)"/>
  <rect x="56" y="832" width="200" height="16" rx="4" fill="#ffffff" opacity="0.95"/>
  <rect x="56" y="856" width="240" height="10" rx="3" fill="#ffffff" opacity="0.7"/>
  <rect x="56" y="872" width="180" height="10" rx="3" fill="#ffffff" opacity="0.7"/>
  <rect x="56" y="940" width="100" height="32" rx="16" fill="#ffffff"/>
  <text x="106" y="962" font-size="14" font-weight="600" fill="#2563EB" text-anchor="middle">Sign up</text>
  <text x="56" y="1116" font-size="22" font-weight="600" fill="#0F172A">Webinar</text>
  <text x="56" y="1148" font-size="18" fill="#64748B">Event · 5 blocks</text>

  <!-- Card 4 -->
  <rect x="368" y="788" width="320" height="420" rx="20" fill="#ffffff"/>
  <rect x="368" y="788" width="320" height="280" rx="20" fill="url(#t4)"/>
  <rect x="392" y="832" width="180" height="16" rx="4" fill="#ffffff" opacity="0.95"/>
  <rect x="392" y="856" width="220" height="10" rx="3" fill="#ffffff" opacity="0.7"/>
  <rect x="392" y="872" width="200" height="10" rx="3" fill="#ffffff" opacity="0.7"/>
  <rect x="392" y="940" width="100" height="32" rx="16" fill="#ffffff"/>
  <text x="442" y="962" font-size="14" font-weight="600" fill="#6366F1" text-anchor="middle">Pre-order</text>
  <text x="392" y="1116" font-size="22" font-weight="600" fill="#0F172A">App Launch</text>
  <text x="392" y="1148" font-size="18" fill="#64748B">Mobile · 7 blocks</text>

  <!-- FAB -->
  <circle cx="640" cy="1320" r="48" fill="url(#bg)"/>
  <path d="M640 1298 L640 1342 M618 1320 L662 1320" stroke="#ffffff" stroke-width="5" stroke-linecap="round"/>

  <!-- Bottom nav -->
  <rect x="32" y="1380" width="656" height="72" rx="36" fill="#ffffff"/>
  <circle cx="120" cy="1416" r="20" fill="#EDF1F7"/>
  <rect x="110" y="1408" width="20" height="16" rx="2" fill="#94A3B8"/>
  <rect x="290" y="1402" width="32" height="28" rx="4" fill="#2563EB"/>
  <text x="306" y="1422" font-size="18" font-weight="700" fill="#ffffff" text-anchor="middle">T</text>
  <circle cx="430" cy="1416" r="12" fill="none" stroke="#94A3B8" stroke-width="3"/>
  <line x1="430" y1="1404" x2="430" y2="1428" stroke="#94A3B8" stroke-width="3" stroke-linecap="round"/>
  <line x1="418" y1="1416" x2="442" y2="1416" stroke="#94A3B8" stroke-width="3" stroke-linecap="round"/>
  <circle cx="600" cy="1416" r="16" fill="none" stroke="#94A3B8" stroke-width="3"/>
  <circle cx="600" cy="1410" r="5" fill="#94A3B8"/>
  <path d="M588 1430 Q600 1420 612 1430" stroke="#94A3B8" stroke-width="3" fill="none" stroke-linecap="round"/>
</svg>
